<?xml version="1.0" encoding="UTF-8"?>
<svg id="Layer_1" data-name="Layer 1" xmlns="http://www.w3.org/2000/svg" xmlns:xlink="http://www.w3.org/1999/xlink" viewBox="0 0 1024 1024">
  <defs>
    <style>
      .cls-1 {
        letter-spacing: -.1em;
      }

      .cls-2 {
        letter-spacing: -.1em;
      }

      .cls-3 {
        letter-spacing: -.08em;
      }

      .cls-4 {
        letter-spacing: -.05em;
      }

      .cls-5 {
        letter-spacing: -.04em;
      }

      .cls-6 {
        font-family: PTSerif-Regular, 'PT Serif';
        font-size: 72px;
      }

      .cls-6, .cls-7, .cls-8 {
        fill: #bb992c;
        stroke: #000;
        stroke-miterlimit: 10;
        stroke-width: .5px;
      }

      .cls-7 {
        filter: url(#drop-shadow-2);
      }

      .cls-8 {
        filter: url(#drop-shadow-1);
      }
    </style>
    <filter id="drop-shadow-1" x="193" y="222" width="478" height="371" filterUnits="userSpaceOnUse">
      <feOffset dx="7" dy="7"/>
      <feGaussianBlur result="blur" stdDeviation="5"/>
      <feFlood flood-color="#000" flood-opacity=".75"/>
      <feComposite in2="blur" operator="in"/>
      <feComposite in="SourceGraphic"/>
    </filter>
    <filter id="drop-shadow-2" x="634" y="222" width="217" height="298" filterUnits="userSpaceOnUse">
      <feOffset dx="7" dy="7"/>
      <feGaussianBlur result="blur-2" stdDeviation="5"/>
      <feFlood flood-color="#000" flood-opacity=".75"/>
      <feComposite in2="blur-2" operator="in"/>
      <feComposite in="SourceGraphic"/>
    </filter>
  </defs>
  <g>
    <path class="cls-8" d="M309,230.98c-.17,1.13.4,3.07-.14,3.86-.38.57-10.09,3.08-12.89,4.61-5.74,3.12-16.97,14.46-16.97,21.03,0,34.3,0,70.18,0,104.5,22.37-22.76,46.86-44.63,68.51-67.99,7.96-8.59,27.42-29.32,28.49-40.51.76-7.92-2.04-14.23-9.32-17.68-2.85-1.35-11.22-2.43-11.63-2.87s.15-3.78-.05-4.96c19.29,0,38.59,0,57.88-.01,31.87,0,63.74-.01,95.6-.02,36.66,0,92.05.4,107.76,42.23.76,2.02,1.38,4.08,1.89,6.17,9.26,38.54-12.5,60.61-46.61,72.64l-13.51,3.97c38.67,2.12,77.44,23.35,80.98,65.53,4.42,52.61-46.21,73.52-90.44,75.53-35.07,1.59-71.35-1.28-106.54-.03,20.7,25.1,47.66,46.58,79.78,54.71,42.45,10.73,86.11,1.15,116.19-31.25,1.57-1.69,9.66-12.81,10.02-8.46.48,5.64-18.51,26.52-21.98,29.51-27.34,23.53-65.2,30.46-100.56,28.53-112.07-6.11-168.55-127.94-229.1-204.97-1.72-.29-16.79,15.55-17.34,18.45-.64,24.98-1.9,50.02,0,74.96,1.59,17.92,10.8,27.87,27.94,32.07,1.29.32,4.74.32,4.95.54s1.38,5.91-.41,5.91h-108c-1.39,0-1.34-4.92-1.51-6,16.66-.82,32.82-11.37,33.05-29.46l-.17-201.63c-1.06-10.22-7.21-16.22-16.49-20.8-2.94-1.45-13.8-3.65-14.27-4.23-.5-.61.07-2.81-.11-3.89h105ZM349.65,307.63c-3.09,3.19-21.58,20.3-21.64,22.83,33.97,54.47,67.62,109.93,107.96,160.08,16.45-3.05,23.81-13.89,25.07-30.02.28-59.88,1.48-126.64,0-195.07-.49-22.45-12.66-31.82-34.82-24.74-20.72,6.62-60.05,49.89-76.57,66.93ZM504,350.98c16.68-.62,34.94,1.17,49.69-7.81,27.89-16.96,31.9-62.63,11.83-86.87-7.56-9.13-18.97-13.05-30.31-15.44-4.02-.84-31.21-2.56-31.21-1.88v112ZM504,485.98c29.56-1.32,63.73,6.79,81.52-22.98,17.23-28.83,11.75-76.41-19.5-93.53-18.37-10.07-41.7-8.34-62.02-8.48v125Z"/>
    <path class="cls-7" d="M820,230.98l8,91-5.12-.58c-6.2-27.02-17.49-57.57-42.87-71.94-18.83-10.66-40.88-10.73-62.02-10.48v117c.73.27,1.2-1,1.5-1h32c13.33,0,24.84-10.64,29.68-22.32,1.01-2.43,3.36-13.17,3.96-13.55.96-.6,3.52.07,4.87-.14l1,89.01c-1.32-.24-5.47.41-5.96-.06-.72-.69-2.76-15.93-4.01-19.49-3.51-10.05-15.34-22.46-26.54-22.46h-36.5v102.5c0,.76,2.51,7.64,3.12,8.88,4.43,8.93,18.37,14.07,27.88,13.63-1.36,1.24-.7,5.99-1,5.99h-105c.25-1.32-.42-5.47.05-5.96.41-.43,8.9-1.74,11.63-2.86,13.61-5.58,18-16.64,19.36-30.64l-.12-189.14c0-6.64-1.72-13.23-5.31-18.81-2.51-3.89-5.78-7.25-9.91-9.78-2.75-1.69-12.18-4.38-12.56-4.94-.54-.79.04-2.73-.14-3.86h174Z"/>
  </g>
  <g>
    <text class="cls-6" transform="translate(107.98 773.47)"><tspan x="0" y="0">WEA</tspan><tspan class="cls-1" x="158.33" y="0">L</tspan><tspan x="190.94" y="0">TH MAN</tspan><tspan class="cls-4" x="469.72" y="0">A</tspan><tspan x="515.01" y="0">GEMENT</tspan></text>
    <text class="cls-6" transform="translate(220.69 684.77)"><tspan x="0" y="0">ASSOCI</tspan><tspan class="cls-3" x="251.35" y="0">A</tspan><tspan x="294.69" y="0">TES </tspan><tspan class="cls-2" x="437.25" y="0">L</tspan><tspan x="469.87" y="0">TD</tspan><tspan class="cls-5" x="565.41" y="0">.</tspan></text>
  </g>
</svg>