<?xml version="1.0" encoding="UTF-8"?><svg id="Layer_1" xmlns="http://www.w3.org/2000/svg" xmlns:xlink="http://www.w3.org/1999/xlink" viewBox="0 0 1044 580"><defs><style>.cls-1{filter:url(#drop-shadow-2);}.cls-1,.cls-2{fill:#bb992c;stroke:#000;stroke-miterlimit:10;stroke-width:.5px;}.cls-2{filter:url(#drop-shadow-1);}</style><filter id="drop-shadow-1" x="0" y="0" width="753" height="580" filterUnits="userSpaceOnUse"><feOffset dx="7" dy="7"/><feGaussianBlur result="blur" stdDeviation="5"/><feFlood flood-color="#000" flood-opacity=".75"/><feComposite in2="blur" operator="in"/><feComposite in="SourceGraphic"/></filter><filter id="drop-shadow-2" x="713" y="0" width="331" height="462" filterUnits="userSpaceOnUse"><feOffset dx="7" dy="7"/><feGaussianBlur result="blur-2" stdDeviation="5"/><feFlood flood-color="#000" flood-opacity=".75"/><feComposite in2="blur-2" operator="in"/><feComposite in="SourceGraphic"/></filter></defs><path class="cls-2" d="M181.7,8.51c-.28,1.83.64,4.96-.23,6.25-.62.92-16.32,4.98-20.86,7.45-9.28,5.05-27.45,23.39-27.45,34.03v169.08c36.19-36.82,75.81-72.2,110.85-110,12.88-13.89,44.36-47.44,46.09-65.54,1.23-12.81-3.31-23.03-15.09-28.61-4.62-2.19-18.15-3.93-18.82-4.64s.24-6.12-.09-8.02c31.22,0,62.43-.01,93.65-.02,51.56-.01,103.12-.02,154.68-.03,59.32-.01,148.93.65,174.35,68.33,1.22,3.26,2.24,6.6,3.05,9.99,14.98,62.35-20.23,98.06-75.42,117.54l-21.86,6.43c62.57,3.42,125.29,37.77,131.02,106.02,7.15,85.12-74.77,118.95-146.33,122.2-56.74,2.57-115.45-2.07-172.38-.05,33.49,40.61,77.12,75.37,129.09,88.51,68.68,17.37,139.32,1.86,187.98-50.55,2.54-2.74,15.63-20.72,16.22-13.7.77,9.12-29.94,42.9-35.56,47.74-44.24,38.07-105.49,49.28-162.69,46.16-181.32-9.89-272.7-206.99-370.67-331.63-2.79-.46-27.16,25.16-28.05,29.85-1.04,40.42-3.08,80.93,0,121.29,2.58,28.99,17.47,45.09,45.21,51.89,2.08.51,7.67.52,8.02.87s2.23,9.56-.67,9.56H11.01c-2.25,0-2.17-7.96-2.44-9.71,26.95-1.33,53.09-18.39,53.47-47.66l-.27-326.22c-1.72-16.53-11.67-26.24-26.68-33.65-4.75-2.34-22.32-5.91-23.08-6.84-.8-.98.12-4.54-.19-6.29h169.88ZM247.47,132.52c-5.01,5.16-34.91,32.84-35.01,36.93,54.97,88.14,109.4,177.86,174.67,259,26.61-4.93,38.53-22.47,40.56-48.57.45-96.88,2.4-204.9,0-315.62-.79-36.32-20.49-51.49-56.33-40.03-33.52,10.72-97.17,80.72-123.89,108.29ZM497.21,202.66c26.99-1.01,56.54,1.89,80.4-12.63,45.12-27.45,51.61-101.33,19.14-140.55-12.23-14.77-30.69-21.12-49.05-24.98-6.5-1.37-50.49-4.14-50.49-3.05v181.21ZM497.21,421.08c47.82-2.14,103.11,10.98,131.89-37.18,27.87-46.64,19.01-123.62-31.55-151.33-29.72-16.29-67.47-13.49-100.34-13.73v202.24Z"/><path class="cls-1" d="M1008.48,8.51l12.95,147.24-8.28-.95c-10.04-43.71-28.31-93.15-69.36-116.39-30.47-17.25-66.14-17.36-100.34-16.96v189.3c1.19.43,1.93-1.62,2.43-1.62h51.77c21.56,0,40.19-17.21,48.02-36.12,1.63-3.93,5.43-21.31,6.4-21.92,1.55-.97,5.69.11,7.88-.22l1.62,144.01c-2.14-.39-8.85.66-9.64-.09-1.17-1.11-4.47-25.77-6.48-31.53-5.69-16.26-24.83-36.34-42.94-36.34h-59.06v165.84c0,1.24,4.06,12.35,5.05,14.36,7.17,14.45,29.72,22.76,45.1,22.06-2.19,2.01-1.13,9.69-1.62,9.69h-169.88c.4-2.14-.68-8.84.08-9.64.67-.7,14.39-2.82,18.82-4.64,22.03-9.03,29.13-26.93,31.33-49.57l-.19-306.03c0-10.74-2.78-21.4-8.6-30.44-4.06-6.3-9.36-11.73-16.03-15.82-4.46-2.73-19.71-7.09-20.32-8-.87-1.28.06-4.42-.22-6.25h281.52Z"/></svg>