<?xml version="1.0" encoding="UTF-8"?><svg id="Layer_1" xmlns="http://www.w3.org/2000/svg" xmlns:xlink="http://www.w3.org/1999/xlink" viewBox="0 0 658 482"><defs><filter id="drop-shadow-1" x="0" y="0" width="478" height="370" filterUnits="userSpaceOnUse"><feOffset dx="7" dy="7"/><feGaussianBlur result="blur" stdDeviation="5"/><feFlood flood-color="#000" flood-opacity=".8"/><feComposite in2="blur" operator="in"/><feComposite in="SourceGraphic"/></filter><filter id="drop-shadow-2" x="441" y="0" width="217" height="297" filterUnits="userSpaceOnUse"><feOffset dx="7" dy="7"/><feGaussianBlur result="blur-2" stdDeviation="5"/><feFlood flood-color="#000" flood-opacity=".8"/><feComposite in2="blur-2" operator="in"/><feComposite in="SourceGraphic"/></filter></defs><path d="M116,8.3c-.2,1.1.4,3.1-.1,3.9s-10.1,3.1-12.9,4.6c-5.7,3.1-17,14.5-17,21v104.5c22.4-22.8,46.9-44.6,68.5-68s27.4-29.3,28.5-40.5-2-14.2-9.3-17.7-11.2-2.4-11.6-2.9.1-3.8,0-5c19.3,0,38.6,0,57.9,0,31.9,0,63.7,0,95.6,0,36.7,0,92,.4,107.8,42.2.8,2,1.4,4.1,1.9,6.2,9.3,38.5-12.5,60.6-46.6,72.6l-13.5,4c38.7,2.1,77.4,23.3,81,65.5,4.4,52.6-46.2,73.5-90.4,75.5-35.1,1.6-71.4-1.3-106.5,0,20.7,25.1,47.7,46.6,79.8,54.7,42.4,10.7,86.1,1.1,116.2-31.2,1.6-1.7,9.7-12.8,10-8.5s-18.5,26.5-22,29.5c-27.3,23.5-65.2,30.5-100.6,28.5-112.1-6.1-168.5-127.9-229.1-205-1.7-.3-16.8,15.6-17.3,18.4-.6,25-1.9,50,0,75,1.6,17.9,10.8,27.9,27.9,32.1s4.7.3,5,.5,1.4,5.9-.4,5.9H10.5c-1.4,0-1.3-4.9-1.5-6,16.7-.8,32.8-11.4,33.1-29.5l-.2-201.6c-1.1-10.2-7.2-16.2-16.5-20.8s-13.8-3.7-14.3-4.2,0-2.8-.1-3.9h105ZM156.7,85c-3.1,3.2-21.6,20.3-21.6,22.8,34,54.5,67.6,109.9,108,160.1,16.4-3,23.8-13.9,25.1-30,.3-59.9,1.5-126.6,0-195.1-.5-22.4-12.7-31.8-34.8-24.7s-60.1,49.9-76.6,66.9ZM311,128.3c16.7-.6,34.9,1.2,49.7-7.8,27.9-17,31.9-62.6,11.8-86.9-7.6-9.1-19-13.1-30.3-15.4s-31.2-2.6-31.2-1.9v112ZM311,263.3c29.6-1.3,63.7,6.8,81.5-23,17.2-28.8,11.7-76.4-19.5-93.5-18.4-10.1-41.7-8.3-62-8.5v125Z" fill="#bb992c" filter="url(#drop-shadow-1)" stroke="#000" stroke-miterlimit="10" stroke-width=".5"/><path d="M627,8.3l8,91-5.1-.6c-6.2-27-17.5-57.6-42.9-71.9-18.8-10.7-40.9-10.7-62-10.5v117c.7.3,1.2-1,1.5-1h32c13.3,0,24.8-10.6,29.7-22.3,1-2.4,3.4-13.2,4-13.5,1-.6,3.5,0,4.9-.1l1,89c-1.3-.2-5.5.4-6,0-.7-.7-2.8-15.9-4-19.5-3.5-10-15.3-22.5-26.5-22.5h-36.5v102.5c0,.8,2.5,7.6,3.1,8.9,4.4,8.9,18.4,14.1,27.9,13.6-1.4,1.2-.7,6-1,6h-105c.2-1.3-.4-5.5,0-6,.4-.4,8.9-1.7,11.6-2.9,13.6-5.6,18-16.6,19.4-30.6V45.7c-.1-6.6-1.8-13.2-5.4-18.8-2.5-3.9-5.8-7.3-9.9-9.8-2.8-1.7-12.2-4.4-12.6-4.9-.5-.8,0-2.7-.1-3.9h174Z" fill="#bb992c" filter="url(#drop-shadow-2)" stroke="#000" stroke-miterlimit="10" stroke-width=".5"/><text transform="translate(27.7 462.1)" fill="#bb992c" font-family="PTSerif-Regular, &apos;PT Serif&apos;" font-size="72" stroke="#000" stroke-miterlimit="10" stroke-width=".5"><tspan x="0" y="0">ASSOCI</tspan><tspan x="251.3" y="0" letter-spacing="0em">A</tspan><tspan x="294.7" y="0">TES </tspan><tspan x="437.3" y="0" letter-spacing="0em">L</tspan><tspan x="469.9" y="0">TD</tspan><tspan x="565.4" y="0" letter-spacing="0em">.</tspan></text></svg>